<?xml version="1.0" encoding="utf-8"?>
<!-- Generator: Adobe Illustrator 28.3.0, SVG Export Plug-In . SVG Version: 6.00 Build 0)  -->
<svg version="1.1" id="Ebene_1" xmlns="http://www.w3.org/2000/svg" xmlns:xlink="http://www.w3.org/1999/xlink" x="0px" y="0px"
	 viewBox="0 0 99.2 99.2" style="enable-background:new 0 0 99.2 99.2;" xml:space="preserve">
<style type="text/css">
	.st0{fill:url(#XMLID_00000078729777060644667710000009108093168348498323_);}
</style>
<g id="Ebene_1_00000132078752567885587910000002680701534603635107_">
	
		<radialGradient id="XMLID_00000101061551273291541670000010515658610564619673_" cx="49.6148" cy="53.05" r="48.0102" gradientTransform="matrix(1 0 0 -1 0 102)" gradientUnits="userSpaceOnUse">
		<stop  offset="0" style="stop-color:#CCFF66"/>
		<stop  offset="1" style="stop-color:#66CC99"/>
	</radialGradient>
	<path id="XMLID_47_" style="fill:url(#XMLID_00000101061551273291541670000010515658610564619673_);" d="M37.5,44.1l23.6,19
		c1,0.8,2.5,0.7,3.3-0.4l20.2-25c0.8-1,0.7-2.5-0.4-3.3L73.8,26v-9.7l16.4-6v12.2c-1.2-0.7-2.8-1.1-4.6-1.1c-3.8,0-6.9,2-6.9,4.5
		s3.1,4.5,6.9,4.5s6.9-2,6.9-4.5c0-0.2,0-0.5-0.1-0.7V3.7c0-0.6-0.5-1.1-1.1-1.1c-0.2,0-0.3,0.1-0.5,0.1l0,0L72.4,9.4l0,0
		c-0.4,0.2-0.8,0.6-0.8,1.1v13.9l-11-8.9c-1-0.8-2.5-0.7-3.3,0.3l-20.2,25C36.3,41.8,36.5,43.3,37.5,44.1z M73.8,11.2l16.4-6V8
		l-16.4,6V11.2z M57.4,57.4L43.9,46.5c-0.3-0.2-0.4-0.7-0.1-1l8.7-10.7c0.2-0.3,0.7-0.3,1-0.1L67,45.6c0.3,0.2,0.3,0.7,0.1,1
		l-8.7,10.7C58.1,57.6,57.7,57.6,57.4,57.4z M64.5,59.3L63,61.1c-0.2,0.3-0.7,0.3-1,0.1l-1.7-1.4c-0.3-0.2-0.3-0.7-0.1-1l1.4-1.8
		c0.2-0.3,0.7-0.3,1-0.1l1.7,1.4C64.7,58.6,64.7,59,64.5,59.3z M68.1,54.8l-1.4,1.8c-0.2,0.3-0.7,0.3-1,0.1L64,55.3
		c-0.3-0.2-0.3-0.7-0.1-1l1.4-1.8c0.2-0.3,0.7-0.3,1-0.1l1.7,1.4C68.3,54.1,68.3,54.6,68.1,54.8z M71.7,50.4l-1.4,1.8
		c-0.2,0.3-0.7,0.3-1,0.1l-1.7-1.4c-0.3-0.2-0.4-0.7-0.1-1l1.4-1.8c0.2-0.3,0.7-0.3,1-0.1l1.7,1.4C71.9,49.6,71.9,50.1,71.7,50.4z
		 M75.3,45.9l-1.4,1.8c-0.2,0.3-0.7,0.3-1,0.1l-1.7-1.4c-0.3-0.2-0.3-0.7-0.1-1l1.4-1.8c0.2-0.3,0.7-0.3,1-0.1l1.7,1.4
		C75.5,45.1,75.6,45.6,75.3,45.9z M78.9,41.4l-1.4,1.8c-0.2,0.3-0.7,0.3-1,0.1l-1.7-1.4c-0.3-0.2-0.3-0.7-0.1-1l1.4-1.8
		c0.2-0.3,0.7-0.3,1-0.1l1.7,1.4C79.1,40.7,79.2,41.1,78.9,41.4z M78.3,36.4l1.4-1.8c0.2-0.3,0.7-0.3,1-0.1l1.7,1.4
		c0.3,0.2,0.3,0.7,0.1,1l-1.4,1.8c-0.2,0.3-0.7,0.3-1,0.1l-1.7-1.4C78.1,37.2,78.1,36.7,78.3,36.4z M64.3,21.3l7.3,5.9v3.6
		c-1.2-0.7-2.8-1.1-4.6-1.1c-3.8,0-6.9,2-6.9,4.5s3.1,4.5,6.9,4.5s6.9-2,6.9-4.5c0-0.2,0-0.5-0.1-0.7V29l3.9,3.2
		c0.3,0.2,0.3,0.7,0.1,1l-8.7,10.7c-0.2,0.3-0.7,0.4-1,0.1L54.8,33.1c-0.3-0.2-0.3-0.7-0.1-1l8.7-10.7C63.6,21.1,64,21,64.3,21.3z
		 M57.2,19.3l1.4-1.8c0.2-0.3,0.7-0.3,1-0.1l1.7,1.4c0.3,0.2,0.3,0.7,0.1,1L60,21.6c-0.2,0.3-0.7,0.4-1,0.1l-1.7-1.4
		C57,20.1,57,19.6,57.2,19.3z M53.6,23.8L55,22c0.2-0.3,0.7-0.3,1-0.1l1.7,1.4c0.3,0.2,0.3,0.7,0.1,1l-1.4,1.8
		c-0.2,0.3-0.7,0.4-1,0.1l-1.7-1.4C53.4,24.6,53.4,24.1,53.6,23.8z M50,28.3l1.4-1.8c0.2-0.3,0.7-0.3,1-0.1l1.7,1.4
		c0.3,0.2,0.3,0.7,0.1,1l-1.4,1.8c-0.2,0.3-0.7,0.3-1,0.1l-1.7-1.4C49.8,29.1,49.7,28.6,50,28.3z M46.4,32.8l1.4-1.8
		c0.2-0.3,0.7-0.3,1-0.1l1.7,1.4c0.3,0.2,0.4,0.7,0.1,1l-1.4,1.8c-0.2,0.3-0.7,0.4-1,0.1l-1.7-1.4C46.2,33.5,46.1,33.1,46.4,32.8z
		 M42.7,37.3l1.4-1.8c0.2-0.3,0.7-0.3,1-0.1l1.7,1.4c0.3,0.2,0.3,0.7,0.1,1l-1.4,1.8c-0.2,0.3-0.7,0.3-1,0.1l-1.7-1.4
		C42.5,38,42.5,37.6,42.7,37.3z M39.1,41.8l1.4-1.8c0.2-0.3,0.7-0.3,1-0.1l1.7,1.4c0.3,0.2,0.3,0.7,0.1,1L41.9,44
		c-0.2,0.3-0.7,0.3-1,0.1l-1.7-1.4C38.9,42.5,38.9,42.1,39.1,41.8z M80.5,86.9c0,4.7-3.8,8.4-8.4,8.4c-4.7,0-8.4-3.8-8.4-8.4
		c0-4.7,3.8-8.4,8.4-8.4C76.7,78.4,80.5,82.2,80.5,86.9z M57.2,86.9c0,4.7-3.8,8.4-8.4,8.4c-4.7,0-8.4-3.8-8.4-8.4
		c0-4.7,3.8-8.4,8.4-8.4C53.4,78.4,57.2,82.2,57.2,86.9z M98.7,43L98,44.1l0,0L93.9,50l-11,15.8h-0.1l-3.2,4.6
		c-0.5,0.7-1.3,1.1-2.1,1.1H43.7c-0.2,0-0.4,0-0.6-0.1c-0.7-0.1-1.2-0.5-1.6-1.1L9.8,25.1H2.6C1.2,25.1,0,24,0,22.6
		C0,21.1,1.2,20,2.6,20h8.5c0.8,0,1.6,0.4,2.1,1.1l31.7,45.3h31.2l15-21.4l3.5-5c0.8-1.2,2.4-1.5,3.6-0.6
		C99.3,40.2,99.6,41.8,98.7,43z"/>
</g>
<g id="Ebene_2_00000160188057021110725380000005114937249635189181_">
</g>
</svg>
