<?xml version="1.0" encoding="utf-8"?>
<!-- Generator: Adobe Illustrator 28.3.0, SVG Export Plug-In . SVG Version: 6.00 Build 0)  -->
<svg version="1.1" id="Ebene_1" xmlns="http://www.w3.org/2000/svg" xmlns:xlink="http://www.w3.org/1999/xlink" x="0px" y="0px"
	 viewBox="0 0 432.7 396.6" style="enable-background:new 0 0 432.7 396.6;" xml:space="preserve">
<style type="text/css">
	.st0{fill:url(#SVGID_1_);}
	.st1{fill:url(#SVGID_00000024690538779555181590000017889991279819228290_);}
</style>
<linearGradient id="SVGID_1_" gradientUnits="userSpaceOnUse" x1="0" y1="199.695" x2="432.66" y2="199.695" gradientTransform="matrix(1 0 0 -1 0 398)">
	<stop  offset="0" style="stop-color:#CCFF66"/>
	<stop  offset="1" style="stop-color:#66CC99"/>
</linearGradient>
<path class="st0" d="M367.3,396.6l65.4-224.1v-28.3H315.5V99.2h-90.1v45.1h-63.1V99.2H90.1V72.9h-18v143.5h28.4l-3,18H54.1V54.1
	h279.4v-18H90.1V18h297.5v108.2h18V0H72.1v36H36v108.2H0v28.1l56.1,224.2H367.3z M36,242.3l-18-72.1v-7.9h18L36,242.3z M243.4,117.2
	h54.1v27h-54.1V117.2z M225.4,172.4v-10.1h90.1v7.9l-7.2,28.2h-89.6L225.4,172.4z M90.1,198.3v-81.1h54.1v27h-36v26.3l-4.6,27.8
	L90.1,198.3z M126.1,172.7l0.1-0.7v-9.8h81.1v7.9l-11.8,46.2h126.8l11.2-43.9v-10.1h81.1v7.8l-60.8,208.6h-262L126.1,172.7z
	 M94.5,252.4l-21,126.2h-3.4L38.6,252.4H94.5z"/>
<linearGradient id="SVGID_00000146460922543917214100000016987117891686253983_" gradientUnits="userSpaceOnUse" x1="351.54" y1="352.935" x2="369.57" y2="352.935" gradientTransform="matrix(1 0 0 -1 0 398)">
	<stop  offset="0" style="stop-color:#CCFF66"/>
	<stop  offset="1" style="stop-color:#66CC99"/>
</linearGradient>
<rect x="351.5" y="36" style="fill:url(#SVGID_00000146460922543917214100000016987117891686253983_);" width="18" height="18"/>
</svg>
