<?xml version="1.0" encoding="utf-8"?>
<!-- Generator: Adobe Illustrator 28.3.0, SVG Export Plug-In . SVG Version: 6.00 Build 0)  -->
<svg version="1.1" id="Ebene_1" xmlns="http://www.w3.org/2000/svg" xmlns:xlink="http://www.w3.org/1999/xlink" x="0px" y="0px"
	 viewBox="0 0 434.3 371" style="enable-background:new 0 0 434.3 371;" xml:space="preserve">
<style type="text/css">
	.st0{fill:url(#SVGID_1_);}
	.st1{fill:url(#SVGID_00000096033274134300053580000014746385947450125748_);}
	.st2{fill:url(#SVGID_00000028317410510000724280000016112007516134571394_);}
	.st3{fill:url(#SVGID_00000114058922886454193380000001752046212687380623_);}
	.st4{fill:url(#SVGID_00000180333948906385120590000011031108787984555162_);}
	.st5{fill:url(#SVGID_00000054249362165883172140000007647438008459051151_);}
	.st6{fill:url(#SVGID_00000180366421875137071040000012280554842883110308_);}
	.st7{fill:url(#SVGID_00000005984793841863127810000005674346822880459921_);}
	.st8{fill:url(#SVGID_00000050662713023577828320000015513780295614754223_);}
	.st9{fill:url(#SVGID_00000178194666823919024220000003285643668501165224_);}
	.st10{fill:url(#SVGID_00000072987001048975521470000013191321178936192926_);}
	.st11{fill:url(#SVGID_00000173864682314719167050000010380202022722946220_);}
	.st12{fill:url(#SVGID_00000089556698250917788690000017908017794634103727_);}
	.st13{fill:url(#SVGID_00000065759200572769823280000003118201103693648311_);}
</style>
<linearGradient id="SVGID_1_" gradientUnits="userSpaceOnUse" x1="60.01" y1="258.66" x2="121.64" y2="258.66" gradientTransform="matrix(1 0 0 -1 0 372)">
	<stop  offset="0" style="stop-color:#27ED69"/>
	<stop  offset="1" style="stop-color:#54C692"/>
</linearGradient>
<rect x="60" y="104.3" class="st0" width="61.6" height="18"/>
<linearGradient id="SVGID_00000104683711502758142050000004308539675746603949_" gradientUnits="userSpaceOnUse" x1="0" y1="186.5" x2="434.34" y2="186.5" gradientTransform="matrix(1 0 0 -1 0 372)">
	<stop  offset="0" style="stop-color:#27ED69"/>
	<stop  offset="1" style="stop-color:#54C692"/>
</linearGradient>
<path style="fill:url(#SVGID_00000104683711502758142050000004308539675746603949_);" d="M389.1,0H371v18.1h-36.2V0h-18.1v18.1
	h-36.2V0h-18.1v18.1h-36.2V0h-18.1v18.1h-36.2V0h-18.1v18.1h-36.2V0H99.5v18.1H63.3V0H45.2v18.1H0v63.3h416.2v271.5h-279v-27.5H44.5
	v27.5H18.1V99.5H0V371h434.3V18.1h-45.2V0z M119.3,352.8H62.5v-9.5h56.8V352.8z M416.3,36.2v27.1H18.1V36.2L416.3,36.2z"/>
<linearGradient id="SVGID_00000080918841299126312260000003604731903471511455_" gradientUnits="userSpaceOnUse" x1="44.47" y1="196.1" x2="137.28" y2="196.1" gradientTransform="matrix(1 0 0 -1 0 372)">
	<stop  offset="0" style="stop-color:#27ED69"/>
	<stop  offset="1" style="stop-color:#54C692"/>
</linearGradient>
<path style="fill:url(#SVGID_00000080918841299126312260000003604731903471511455_);" d="M44.5,216h92.8v-80.2H44.5V216z
	 M62.5,153.8h56.8V198H62.5V153.8z"/>
<linearGradient id="SVGID_00000158717675334303475450000000521563014422600894_" gradientUnits="userSpaceOnUse" x1="44.47" y1="101.455" x2="137.28" y2="101.455" gradientTransform="matrix(1 0 0 -1 0 372)">
	<stop  offset="0" style="stop-color:#27ED69"/>
	<stop  offset="1" style="stop-color:#54C692"/>
</linearGradient>
<path style="fill:url(#SVGID_00000158717675334303475450000000521563014422600894_);" d="M44.5,310.6h92.8v-80.2H44.5V310.6z
	 M62.5,248.5h56.8v44.2H62.5V248.5z"/>
<linearGradient id="SVGID_00000145754813253320457960000005064322875150715306_" gradientUnits="userSpaceOnUse" x1="185.29" y1="258.66" x2="246.92" y2="258.66" gradientTransform="matrix(1 0 0 -1 0 372)">
	<stop  offset="0" style="stop-color:#27ED69"/>
	<stop  offset="1" style="stop-color:#54C692"/>
</linearGradient>
<rect x="185.3" y="104.3" style="fill:url(#SVGID_00000145754813253320457960000005064322875150715306_);" width="61.6" height="18"/>
<linearGradient id="SVGID_00000137127782900173569290000006865958350543062921_" gradientUnits="userSpaceOnUse" x1="169.74" y1="196.1" x2="262.55" y2="196.1" gradientTransform="matrix(1 0 0 -1 0 372)">
	<stop  offset="0" style="stop-color:#27ED69"/>
	<stop  offset="1" style="stop-color:#54C692"/>
</linearGradient>
<path style="fill:url(#SVGID_00000137127782900173569290000006865958350543062921_);" d="M169.7,216h92.8v-80.2h-92.8V216z
	 M187.7,153.8h56.8V198h-56.8V153.8z"/>
<linearGradient id="SVGID_00000024704449829556998260000003090222021935686801_" gradientUnits="userSpaceOnUse" x1="235.55" y1="76.175" x2="260.6" y2="76.175" gradientTransform="matrix(1 0 0 -1 0 372)">
	<stop  offset="0" style="stop-color:#27ED69"/>
	<stop  offset="1" style="stop-color:#54C692"/>
</linearGradient>
<polygon style="fill:url(#SVGID_00000024704449829556998260000003090222021935686801_);" points="246.5,294.2 235.6,294.2 
	235.6,308.4 260.6,308.4 260.6,283.3 246.5,283.3 "/>
<linearGradient id="SVGID_00000029032704674726009250000009773048371603773119_" gradientUnits="userSpaceOnUse" x1="171.69" y1="76.175" x2="196.74" y2="76.175" gradientTransform="matrix(1 0 0 -1 0 372)">
	<stop  offset="0" style="stop-color:#27ED69"/>
	<stop  offset="1" style="stop-color:#54C692"/>
</linearGradient>
<polygon style="fill:url(#SVGID_00000029032704674726009250000009773048371603773119_);" points="171.7,283.3 171.7,308.4 
	196.7,308.4 196.7,294.2 185.8,294.2 185.8,283.3 "/>
<linearGradient id="SVGID_00000157268504310508672200000009886302839064827574_" gradientUnits="userSpaceOnUse" x1="171.69" y1="127.415" x2="196.74" y2="127.415" gradientTransform="matrix(1 0 0 -1 0 372)">
	<stop  offset="0" style="stop-color:#27ED69"/>
	<stop  offset="1" style="stop-color:#54C692"/>
</linearGradient>
<polygon style="fill:url(#SVGID_00000157268504310508672200000009886302839064827574_);" points="196.7,232.1 171.7,232.1 
	171.7,257.1 185.8,257.1 185.8,246.2 196.7,246.2 "/>
<linearGradient id="SVGID_00000032619449796712695460000013031534105567600039_" gradientUnits="userSpaceOnUse" x1="235.55" y1="127.415" x2="260.6" y2="127.415" gradientTransform="matrix(1 0 0 -1 0 372)">
	<stop  offset="0" style="stop-color:#27ED69"/>
	<stop  offset="1" style="stop-color:#54C692"/>
</linearGradient>
<polygon style="fill:url(#SVGID_00000032619449796712695460000013031534105567600039_);" points="260.6,232.1 235.6,232.1 
	235.6,246.2 246.5,246.2 246.5,257.1 260.6,257.1 "/>
<linearGradient id="SVGID_00000092434087096809242220000005713318525304454292_" gradientUnits="userSpaceOnUse" x1="309.75" y1="258.66" x2="371.38" y2="258.66" gradientTransform="matrix(1 0 0 -1 0 372)">
	<stop  offset="0" style="stop-color:#27ED69"/>
	<stop  offset="1" style="stop-color:#54C692"/>
</linearGradient>
<rect x="309.8" y="104.3" style="fill:url(#SVGID_00000092434087096809242220000005713318525304454292_);" width="61.6" height="18"/>
<linearGradient id="SVGID_00000098184390534662017320000013930270981262101675_" gradientUnits="userSpaceOnUse" x1="294.21" y1="196.1" x2="387" y2="196.1" gradientTransform="matrix(1 0 0 -1 0 372)">
	<stop  offset="0" style="stop-color:#27ED69"/>
	<stop  offset="1" style="stop-color:#54C692"/>
</linearGradient>
<path style="fill:url(#SVGID_00000098184390534662017320000013930270981262101675_);" d="M294.2,216H387v-80.2h-92.8V216z
	 M312.2,153.8H369V198h-56.8V153.8z"/>
<linearGradient id="SVGID_00000060008304546689937650000004793538625566982545_" gradientUnits="userSpaceOnUse" x1="294.21" y1="101.455" x2="387" y2="101.455" gradientTransform="matrix(1 0 0 -1 0 372)">
	<stop  offset="0" style="stop-color:#27ED69"/>
	<stop  offset="1" style="stop-color:#54C692"/>
</linearGradient>
<path style="fill:url(#SVGID_00000060008304546689937650000004793538625566982545_);" d="M294.2,310.6H387v-80.2h-92.8V310.6z
	 M312.2,248.5H369v44.2h-56.8V248.5z"/>
<linearGradient id="SVGID_00000074402521842558803570000003319571523625605519_" gradientUnits="userSpaceOnUse" x1="158.22" y1="77.795" x2="237.8" y2="77.795" gradientTransform="matrix(1 0 0 -1 0 372)">
	<stop  offset="0" style="stop-color:#27ED69"/>
	<stop  offset="1" style="stop-color:#54C692"/>
</linearGradient>
<path style="fill:url(#SVGID_00000074402521842558803570000003319571523625605519_);" d="M158.5,335.3l0.3,6
	c1.3-0.1,32.9-1.7,52.4-23.3c9.8-10.9,14.8-24.7,14.7-41.2l11.9-2L215,247.1l-12.7,33.6l11.5-1.9c-0.4,12.5-4.2,23-11.6,31.1
	c-16.1,17.8-43.8,19.4-44.1,19.4L158.5,335.3z"/>
</svg>
