<?xml version="1.0" encoding="utf-8"?>
<!-- Generator: Adobe Illustrator 28.3.0, SVG Export Plug-In . SVG Version: 6.00 Build 0)  -->
<svg version="1.1" id="Ebene_1" xmlns="http://www.w3.org/2000/svg" xmlns:xlink="http://www.w3.org/1999/xlink" x="0px" y="0px"
	 viewBox="0 0 434.3 371" style="enable-background:new 0 0 434.3 371;" xml:space="preserve">
<style type="text/css">
	.st0{fill:url(#SVGID_1_);}
	.st1{fill:url(#SVGID_00000052069493844152756740000009077217021474198193_);}
	.st2{fill:url(#SVGID_00000060012856857023686940000010089128707034091140_);}
</style>
<linearGradient id="SVGID_1_" gradientUnits="userSpaceOnUse" x1="45.24" y1="154.845" x2="389.1" y2="154.845" gradientTransform="matrix(1 0 0 -1 0 372)">
	<stop  offset="0" style="stop-color:#CBED69"/>
	<stop  offset="1" style="stop-color:#4DC694"/>
</linearGradient>
<path class="st0" d="M153.8,334.8h72.4v-54.3h162.9v-181H153.8v54.3H45.2v181L153.8,334.8L153.8,334.8z M334.8,117.6H371v36.2h-36.2
	L334.8,117.6z M280.5,117.6h36.2v36.2h-36.2V117.6z M280.5,226.2v-54.3H371v90.5h-90.5L280.5,226.2z M226.2,117.6h36.2v36.2h-36.2
	V117.6z M226.2,171.9h36.2v36.2h-36.2V171.9z M226.2,226.2h36.2v36.2h-36.2V226.2z M171.9,117.6h36.2v36.2h-36.2V117.6z
	 M171.9,171.9h36.2v36.2h-36.2V171.9z M171.9,226.2h36.2v36.2h-36.2V226.2z M171.9,280.5h36.2v36.2h-36.2V280.5z M117.6,171.9h36.2
	v36.2h-36.2V171.9z M117.6,226.2h36.2v36.2h-36.2V226.2z M117.6,280.5h36.2v36.2h-36.2V280.5z M99.5,316.7H63.3v-36.2h36.2
	L99.5,316.7z M99.5,262.4H63.3v-36.2h36.2L99.5,262.4z M99.5,208.1H63.3v-36.2h36.2L99.5,208.1z"/>
<linearGradient id="SVGID_00000090272234371435179310000012404109956318696090_" gradientUnits="userSpaceOnUse" x1="0" y1="186.5" x2="434.34" y2="186.5" gradientTransform="matrix(1 0 0 -1 0 372)">
	<stop  offset="0" style="stop-color:#CBED69"/>
	<stop  offset="1" style="stop-color:#4DC694"/>
</linearGradient>
<path style="fill:url(#SVGID_00000090272234371435179310000012404109956318696090_);" d="M434.3,18.1h-45.2V0H371v18.1h-36.2V0
	h-18.1v18.1h-36.2V0h-18.1v18.1h-36.2V0h-18.1v18.1h-36.2V0h-18.1v18.1h-36.2V0H99.5v18.1H63.3V0H45.2v18.1H0v63.3h416.2v271.5H18.1
	V99.5H0V371h434.3V18.1z M416.2,63.3H18.1V36.2h398.1V63.3z"/>
<linearGradient id="SVGID_00000101064242076551771580000006282946333628284319_" gradientUnits="userSpaceOnUse" x1="289.549" y1="152.9605" x2="361.941" y2="152.9605" gradientTransform="matrix(1 0 0 -1 0 372)">
	<stop  offset="0" style="stop-color:#CBED69"/>
	<stop  offset="1" style="stop-color:#4DC694"/>
</linearGradient>
<path style="fill:url(#SVGID_00000101064242076551771580000006282946333628284319_);" d="M346.5,192.7l-29.8,29.8L305,210.8
	c-3.5-3.5-9.3-3.5-12.8,0c-3.5,3.5-3.5,9.3,0,12.8l24.5,24.5l42.6-42.6c3.5-3.5,3.5-9.3,0-12.8C355.8,189.1,350,189.1,346.5,192.7
	L346.5,192.7z"/>
</svg>
