<?xml version="1.0" encoding="utf-8"?>
<!-- Generator: Adobe Illustrator 28.3.0, SVG Export Plug-In . SVG Version: 6.00 Build 0)  -->
<svg version="1.1" id="Layer_1" xmlns="http://www.w3.org/2000/svg" xmlns:xlink="http://www.w3.org/1999/xlink" x="0px" y="0px"
	 viewBox="0 0 59.9 59.8" style="enable-background:new 0 0 59.9 59.8;" xml:space="preserve">
<style type="text/css">
	.st0{fill:url(#SVGID_00000081629141707074191890000014389031628897876615_);}
	.st1{fill:url(#SVGID_00000008129087107268594370000015185148861336704656_);}
	.st2{fill:url(#SVGID_00000083083998444476689120000001443162774534032044_);}
	.st3{fill:url(#SVGID_00000008857903205551458230000005908078875119450778_);}
</style>
<g>
	<g>
		<g>
			
				<linearGradient id="SVGID_00000144316529864951272740000003406076411329426871_" gradientUnits="userSpaceOnUse" x1="-4.768372e-07" y1="-979.75" x2="47.432" y2="-979.75" gradientTransform="matrix(1 0 0 -1 0 -956)">
				<stop  offset="0" style="stop-color:#CBED69"/>
				<stop  offset="1" style="stop-color:#54C692"/>
			</linearGradient>
			<path id="SVGID_1_" style="fill:url(#SVGID_00000144316529864951272740000003406076411329426871_);" d="M15.5,10.2
				c1.4-0.8,2.9-1.4,4.4-1.8l0.6-0.2l0.9-6.4h4.4l0.9,6.4l0.6,0.2c1.6,0.4,3.1,1,4.4,1.8l0.5,0.3l5.1-3.9l3.1,3.1L36.8,15l0.3,0.5
				c0.8,1.4,1.4,2.9,1.8,4.4l0.2,0.6l6.4,0.9v4.4l-6.4,0.9L39,27.5c-0.4,1.6-1,3.1-1.8,4.4l-0.3,0.5l3.9,5.1l-3.1,3.1l-5.1-3.9
				L32.1,37c-1.6,1-3.1,1.6-4.6,2l-0.6,0.2L26,45.6h-4.4l-0.9-6.4L20,39c-1.6-0.4-3.1-1-4.4-1.8L15,36.8l-5.1,3.9l-3.1-3.1l3.9-5.1
				L10.4,32c-0.8-1.4-1.4-2.9-1.8-4.4L8.4,27L2,26.1v-4.4l6.4-0.9V20c0.4-1.6,1-3.1,1.8-4.4l0.3-0.5L6.7,9.9l3.1-3.1l5.1,3.9
				L15.5,10.2z M19.9,0l-1,6.7c-1.3,0.4-2.6,0.9-3.8,1.6L9.7,4.2L4.2,9.7l4.1,5.4c-0.7,1.2-1.2,2.5-1.6,3.8l-6.7,1v7.7l6.7,1
				c0.4,1.3,0.9,2.6,1.6,3.8l-4.1,5.4l5.5,5.5l5.4-4.1c1.2,0.7,2.5,1.2,3.8,1.6l1,6.7h7.7l1-6.7c1.3-0.4,2.6-0.9,3.8-1.6l5.4,4.1
				l5.5-5.5l-4.1-5.4c0.7-1.2,1.2-2.5,1.6-3.8l6.7-1v-7.7l-6.7-1c-0.4-1.3-0.9-2.6-1.6-3.8l4.1-5.4l-5.5-5.5l-5.4,4.1
				c-1.2-0.7-2.5-1.2-3.8-1.6l-1-6.7C27.6,0,19.9,0,19.9,0z"/>
		</g>
	</g>
	<g>
		<g>
			
				<linearGradient id="SVGID_00000009590698471590416330000010766577780528695218_" gradientUnits="userSpaceOnUse" x1="15.178" y1="-979.7" x2="32.254" y2="-979.7" gradientTransform="matrix(1 0 0 -1 0 -956)">
				<stop  offset="0" style="stop-color:#CBED69"/>
				<stop  offset="1" style="stop-color:#54C692"/>
			</linearGradient>
			<path id="SVGID_4_" style="fill:url(#SVGID_00000009590698471590416330000010766577780528695218_);" d="M17.1,23.7
				c0-3.7,3-6.6,6.6-6.6s6.6,3,6.6,6.6c0,3.7-3,6.6-6.6,6.6S17.1,27.4,17.1,23.7 M15.2,23.7c0,4.7,3.8,8.5,8.5,8.5s8.5-3.8,8.5-8.5
				s-3.8-8.5-8.5-8.5S15.2,19,15.2,23.7"/>
		</g>
	</g>
	<g>
		<g>
			
				<linearGradient id="SVGID_00000079480997904482057050000010784367177656285620_" gradientUnits="userSpaceOnUse" x1="32.579" y1="-1002.15" x2="59.883" y2="-1002.15" gradientTransform="matrix(1 0 0 -1 0 -956)">
				<stop  offset="0" style="stop-color:#CBED69"/>
				<stop  offset="1" style="stop-color:#54C692"/>
			</linearGradient>
			<path id="SVGID_7_" style="fill:url(#SVGID_00000079480997904482057050000010784367177656285620_);" d="M43.3,35.5l1.7,6.6
				c-1.1,0.8-2,1.8-2.9,2.9l-6.6-1.7l-3,7.1l5.9,3.5v5.8h1.9v-6.9L35,49.7l1.7-4.1l6.2,1.6l0.4-0.5c1-1.3,2.1-2.4,3.4-3.4l0.5-0.4
				l-1.6-6.2l4.1-1.7l3.2,5.4h7v-1.9H54l-3.5-5.9L43.3,35.5z"/>
		</g>
	</g>
	<g>
		<g>
			
				<linearGradient id="SVGID_00000033341957425056652220000011609690218155724733_" gradientUnits="userSpaceOnUse" x1="47.4252" y1="-1009.6" x2="59.764" y2="-1009.6" gradientTransform="matrix(1 0 0 -1 0 -956)">
				<stop  offset="0" style="stop-color:#CBED69"/>
				<stop  offset="1" style="stop-color:#54C692"/>
			</linearGradient>
			<path id="SVGID_10_" style="fill:url(#SVGID_00000033341957425056652220000011609690218155724733_);" d="M52.7,48.1
				c-2.1,0.9-3.7,2.5-4.6,4.6c-0.7,1.7-0.8,3.6-0.4,5.5l0.3,0.9v0.7h1.9V59l-0.3-1.3c-0.4-1.4-0.3-2.9,0.3-4.2
				c0.7-1.6,2-2.9,3.6-3.6c1.6-0.7,3.4-0.7,5.1,0l0.2,0.1h1.1v-2h-0.7c-1-0.4-2-0.6-3.1-0.6C54.9,47.4,53.8,47.6,52.7,48.1"/>
		</g>
	</g>
</g>
</svg>
