<?xml version="1.0" encoding="utf-8"?>
<!-- Generator: Adobe Illustrator 28.1.0, SVG Export Plug-In . SVG Version: 6.00 Build 0)  -->
<svg version="1.1" id="Ebene_1" xmlns="http://www.w3.org/2000/svg" xmlns:xlink="http://www.w3.org/1999/xlink" x="0px" y="0px"
	 viewBox="0 0 1024 1024" style="enable-background:new 0 0 1024 1024;" xml:space="preserve">
<style type="text/css">
	.st0{fill:url(#SVGID_1_);}
	.st1{fill:url(#SVGID_00000098913752269248969960000009914969364676230531_);}
	.st2{fill:url(#SVGID_00000051373150659359308450000007478998906781276556_);}
</style>
<linearGradient id="SVGID_1_" gradientUnits="userSpaceOnUse" x1="458.2199" y1="264.4463" x2="-33.0812" y2="539.3696">
	<stop  offset="0.1544" style="stop-color:#FB9F27"/>
	<stop  offset="1" style="stop-color:#F95900"/>
</linearGradient>
<path class="st0" d="M460.8,563.2c-155.1,0-281.6-126.5-281.6-281.6S305.7,0,460.8,0s281.6,126.5,281.6,281.6
	c0,39.4-8.2,77.3-23.6,112.6c-5.6,12.8-21,18.9-33.8,12.8c-12.8-5.6-18.9-21-12.8-33.8c12.8-29.2,19.5-59.9,19.5-92.2
	c0-127-103.4-230.4-230.4-230.4S230.9,154.1,230.9,281.1s103.4,230.4,230.4,230.4c14.3,0,25.6,11.3,25.6,25.6
	S475.1,563.2,460.8,563.2z"/>
<linearGradient id="SVGID_00000022537808363241932280000001287333565384913819_" gradientUnits="userSpaceOnUse" x1="0" y1="768" x2="460.8" y2="768">
	<stop  offset="0.1074" style="stop-color:#F95900"/>
	<stop  offset="1" style="stop-color:#FB9F27"/>
</linearGradient>
<path style="fill:url(#SVGID_00000022537808363241932280000001287333565384913819_);" d="M51.2,1024H0
	c0-121.3,51.7-249.3,142.3-350.7C234,570.9,350.2,512,460.8,512v51.2C258,563.2,51.2,795.6,51.2,1024L51.2,1024z"/>
<linearGradient id="SVGID_00000105410378500529246550000008044868273504459138_" gradientUnits="userSpaceOnUse" x1="731.4182" y1="761.5142" x2="455.6666" y2="1256.0013">
	<stop  offset="0" style="stop-color:#FB9F27"/>
	<stop  offset="1" style="stop-color:#F95900"/>
</linearGradient>
<path style="fill:url(#SVGID_00000105410378500529246550000008044868273504459138_);" d="M830,1024c-21.5,0-41.5-10.2-54.8-29.2
	l-19.5-28.2c-3.1-4.6-8.2-7.2-13.3-7.2s-10.2,2.6-13.8,7.2l-19.5,28.2c-18.4,26.6-50.7,35.8-80.9,23.6s-47.1-42.5-41.5-74.2
	l5.6-33.3c1.5-8.2-3.1-13.3-5.1-15.4s-7.2-5.6-14.3-4.6l-33.8,6.1c-32.3,5.6-62-10.2-74.8-39.9c-12.8-30.2-3.1-63,23.6-81.9
	l28.2-19.5c4.6-3.1,7.2-8.2,7.2-13.3s-2.6-10.2-7.2-13.8l-28.2-19.5c-26.6-18.4-35.8-51.2-23.6-80.9c12.3-30.2,42-46.6,74.2-41
	l33.3,6.1c7.7,1.5,13.3-3.1,14.8-4.6c2-2,5.6-7.2,4.1-14.3V574l-5.6-33.3c-5.6-31.7,10.2-61.4,39.9-74.2c30.2-12.8,63-3.1,81.9,23.6
	l19.5,28.2c3.1,4.6,8.2,7.2,13.3,7.2s10.2-2.6,13.8-7.2l19.5-28.2c18.4-26.6,51.2-36.4,80.9-23.6c30.2,12.3,46.1,42.5,40.4,74.8
	l-3.6,32.3c-1.5,8.2,3.1,13.3,5.1,15.4s7.2,5.6,14.3,4.6l33.8-6.1c32.3-5.6,62.5,10.2,74.8,39.9c12.8,30.2,3.1,63-23.6,81.9
	l-28.2,19.5c-4.6,3.1-7.2,8.2-7.2,13.3s2.6,10.2,7.2,13.8l28.2,19.5c27.1,18.9,36.9,52.2,24.1,82.4c-12.8,29.7-42.5,45.6-74.8,39.4
	l-32.8-6.1c-7.7-1.5-13.3,3.1-14.8,4.6c-2,2-5.6,7.2-4.1,14.3v0.5l5.6,33.3c5.6,31.7-10.2,62-39.9,74.2
	C848.4,1022,839.2,1024,830,1024L830,1024z M742.4,908.3c22,0,43,10.8,55.3,29.2l19.5,28.2c7.2,10.2,16.9,6.7,20,5.6
	c3.6-1.5,11.8-6.1,9.7-18.4l-5.6-33.3c-4.1-21.5,2.6-44,17.9-59.4c15.9-15.9,38.4-23,60.4-19.5l33.3,6.1c11.8,2,16.4-5.6,17.9-9.2
	c1-3.1,4.6-12.8-6.1-20.5l-28.2-19.5c-18.4-12.8-29.2-33.8-29.2-55.8s10.8-43,29.2-55.3l28.2-19.5c10.2-7.2,7.2-16.9,5.6-20
	c-1.5-3.6-6.1-11.8-18.4-9.7l-33.3,6.1c-21.5,4.1-43.5-2.6-59.4-17.9c-15.9-15.9-23.6-38.4-19.5-60.4l5.6-33.3
	c2-12.3-6.1-16.9-9.7-18.4c-3.6-1.5-12.8-4.1-19.5,5.6l-19.5,28.2c-12.8,18.4-33.8,29.2-55.8,29.2s-43-10.8-55.3-29.2l-19.5-28.2
	c-7.2-9.7-16.9-6.7-20-5.6c-3.6,1.5-11.8,6.1-9.7,17.9l5.6,33.3c4.1,21.5-2.6,44-17.9,59.4c-15.9,15.9-38.4,23-60.4,19.5l-33.3-6.1
	c-11.3-2-16.4,6.7-17.9,10.2s-4.1,12.8,5.6,19.5l28.2,19.5c18.4,12.8,29.2,33.8,29.2,55.8s-10.8,43-29.2,55.3l-28.2,19.5
	c-10.2,7.2-7.2,16.9-5.6,20c1.5,3.6,6.1,11.8,18.4,9.7l33.3-6.1c21.5-4.1,43.5,2.6,59.4,17.9c15.9,15.9,23.6,38.4,19.5,60.4
	l-5.6,33.3c-2,12.3,7.2,17.4,10.2,18.4c3.6,1.5,12.8,4.1,19.5-5.6l19.5-28.2C699.4,919,719.9,908.3,742.4,908.3L742.4,908.3z
	 M742.9,886.8c-79.4,0-143.9-65-143.9-144.4S663.6,598,742.9,598s143.9,65,143.9,144.4S822.3,886.8,742.9,886.8L742.9,886.8z
	 M742.9,649.2c-51.2,0-92.7,42-92.7,93.2s41.5,93.2,92.7,93.2s92.7-42,92.7-93.2S794.1,649.2,742.9,649.2z"/>
</svg>
