<svg version="1.1" id="Ebene_1" xmlns="http://www.w3.org/2000/svg" xmlns:xlink="http://www.w3.org/1999/xlink" x="0px" y="0px"
	 viewBox="0 0 476.3 436.8" style="enable-background:new 0 0 476.3 436.8;" xml:space="preserve">
<style type="text/css">
	.st0{fill:url(#SVGID_1_);}
	.st1{fill:url(#SVGID_00000161627035165575717760000008382182092883337870_);}
	.st2{fill:url(#SVGID_00000091696233142112975410000008043388090510481796_);}
	.st3{fill:url(#SVGID_00000053511153836245205770000016614083996334321339_);}
	.st4{fill:url(#SVGID_00000056415327526807343050000011128669756847465860_);}
	.st5{fill:url(#SVGID_00000131364118845422467170000013946646503014700421_);}
	.st6{fill:url(#SVGID_00000140721582614735945240000002393889312412022407_);}
	.st7{fill:url(#SVGID_00000010299761004227359650000015491568725135316145_);}
	.st8{fill:url(#SVGID_00000168099356686352020900000013742019555190687659_);}
	.st9{fill:url(#SVGID_00000153687712805645539640000010960207163460976770_);}
	.st10{fill:url(#SVGID_00000047056136783736909390000005088573794791583932_);}
	.st11{fill:url(#SVGID_00000119114220641481857040000015790983499016082595_);}
	.st12{fill:url(#SVGID_00000124121383999917713830000002365391477286900128_);}
	.st13{fill:url(#SVGID_00000146487910868581101880000015996039400680433843_);}
	.st14{fill:url(#SVGID_00000032607855982476223590000004664278038844670107_);}
	.st15{fill:url(#SVGID_00000172416749362036867270000015777509195615989912_);}
	.st16{fill:url(#SVGID_00000133513326759048211430000018335937121186376340_);}
	.st17{fill:url(#SVGID_00000132077856699117354050000003864631547914441881_);}
</style>
<linearGradient id="SVGID_1_" gradientUnits="userSpaceOnUse" x1="0" y1="219.625" x2="476.3" y2="219.625" gradientTransform="matrix(1 0 0 -1 0 438)">
	<stop  offset="0" style="stop-color:#CBED69"/>
	<stop  offset="1" style="stop-color:#54C692"/>
</linearGradient>
<path class="st0" d="M438.5,167.2c0-15.4-12.6-28-28-28h-8.1V0H74.1v139.2h-8.2c-15.4,0-28,12.6-28,28v222.4H0v24.1l13.6,23h449.2
	l13.6-23v-24.1h-37.8V167.2z M402.3,157h8.1c5.7,0,10.2,4.6,10.2,10.2v222.4h-18.4V157z M91.8,17.8h292.7v41.4H91.8V17.8z M91.8,77
	h292.7v311.8H91.8V77z M55.6,167.2c0-5.7,4.6-10.2,10.2-10.2h8.2v232.6H55.6V167.2z M458.5,407.4v1.5l-5.9,10.1H23.7l-5.9-10.1v-1.5
	H458.5z"/>
<linearGradient id="SVGID_00000004510489690196142460000013839558628288563887_" gradientUnits="userSpaceOnUse" x1="103.41" y1="399.515" x2="121.21" y2="399.515" gradientTransform="matrix(1 0 0 -1 0 438)">
	<stop  offset="0" style="stop-color:#CBED69"/>
	<stop  offset="1" style="stop-color:#54C692"/>
</linearGradient>
<rect x="103.4" y="29.6" style="fill:url(#SVGID_00000004510489690196142460000013839558628288563887_);" width="17.8" height="17.8"/>
<linearGradient id="SVGID_00000160908304902429771770000003826306704366905238_" gradientUnits="userSpaceOnUse" x1="162.59" y1="399.515" x2="180.38" y2="399.515" gradientTransform="matrix(1 0 0 -1 0 438)">
	<stop  offset="0" style="stop-color:#CBED69"/>
	<stop  offset="1" style="stop-color:#54C692"/>
</linearGradient>
<rect x="162.6" y="29.6" style="fill:url(#SVGID_00000160908304902429771770000003826306704366905238_);" width="17.8" height="17.8"/>
<linearGradient id="SVGID_00000126292896121600478580000014193493142713049766_" gradientUnits="userSpaceOnUse" x1="192.42" y1="399.515" x2="372.74" y2="399.515" gradientTransform="matrix(1 0 0 -1 0 438)">
	<stop  offset="0" style="stop-color:#CBED69"/>
	<stop  offset="1" style="stop-color:#54C692"/>
</linearGradient>
<rect x="192.4" y="29.6" style="fill:url(#SVGID_00000126292896121600478580000014193493142713049766_);" width="180.3" height="17.8"/>
<linearGradient id="SVGID_00000070108898399033333540000017475359950993238194_" gradientUnits="userSpaceOnUse" x1="133.12" y1="399.515" x2="150.91" y2="399.515" gradientTransform="matrix(1 0 0 -1 0 438)">
	<stop  offset="0" style="stop-color:#CBED69"/>
	<stop  offset="1" style="stop-color:#54C692"/>
</linearGradient>
<rect x="133.1" y="29.6" style="fill:url(#SVGID_00000070108898399033333540000017475359950993238194_);" width="17.8" height="17.8"/>
<linearGradient id="SVGID_00000104675926700704526540000011018195653042354062_" gradientUnits="userSpaceOnUse" x1="110.81" y1="300.66" x2="365.44" y2="300.66" gradientTransform="matrix(1 0 0 -1 0 438)">
	<stop  offset="0" style="stop-color:#CBED69"/>
	<stop  offset="1" style="stop-color:#54C692"/>
</linearGradient>
<path style="fill:url(#SVGID_00000104675926700704526540000011018195653042354062_);" d="M365.4,98.8H110.8v77.1h254.6V98.8z
	 M347.6,158.1h-219v-41.5h219V158.1z"/>
<linearGradient id="SVGID_00000138561676828543608740000003162104689468088492_" gradientUnits="userSpaceOnUse" x1="110.81" y1="211.885" x2="187.89" y2="211.885" gradientTransform="matrix(1 0 0 -1 0 438)">
	<stop  offset="0" style="stop-color:#CBED69"/>
	<stop  offset="1" style="stop-color:#54C692"/>
</linearGradient>
<path style="fill:url(#SVGID_00000138561676828543608740000003162104689468088492_);" d="M187.9,187.6h-77.1v77.1h77.1V187.6z
	 M170.1,246.9h-41.5v-41.6h41.5V246.9z"/>
<linearGradient id="SVGID_00000096740634378730008410000017610925451235359639_" gradientUnits="userSpaceOnUse" x1="199.58" y1="211.885" x2="276.67" y2="211.885" gradientTransform="matrix(1 0 0 -1 0 438)">
	<stop  offset="0" style="stop-color:#CBED69"/>
	<stop  offset="1" style="stop-color:#54C692"/>
</linearGradient>
<path style="fill:url(#SVGID_00000096740634378730008410000017610925451235359639_);" d="M276.7,187.6h-77.1v77.1h77.1L276.7,187.6z
	 M258.9,246.9h-41.5v-41.6h41.5L258.9,246.9z"/>
<linearGradient id="SVGID_00000131361800307723214480000008787833852096562331_" gradientUnits="userSpaceOnUse" x1="288.36" y1="211.885" x2="365.44" y2="211.885" gradientTransform="matrix(1 0 0 -1 0 438)">
	<stop  offset="0" style="stop-color:#CBED69"/>
	<stop  offset="1" style="stop-color:#54C692"/>
</linearGradient>
<path style="fill:url(#SVGID_00000131361800307723214480000008787833852096562331_);" d="M365.4,187.6h-77.1v77.1h77.1V187.6z
	 M347.6,246.9h-41.5v-41.6h41.5V246.9z"/>
<linearGradient id="SVGID_00000081637182666386680420000000524567975994985378_" gradientUnits="userSpaceOnUse" x1="111.04" y1="152.78" x2="188.25" y2="152.78" gradientTransform="matrix(1 0 0 -1 0 438)">
	<stop  offset="0" style="stop-color:#CBED69"/>
	<stop  offset="1" style="stop-color:#54C692"/>
</linearGradient>
<rect x="111" y="276.3" style="fill:url(#SVGID_00000081637182666386680420000000524567975994985378_);" width="77.2" height="17.8"/>
<linearGradient id="SVGID_00000165205213894931620180000009293586844835432320_" gradientUnits="userSpaceOnUse" x1="111.04" y1="123.19" x2="188.25" y2="123.19" gradientTransform="matrix(1 0 0 -1 0 438)">
	<stop  offset="0" style="stop-color:#CBED69"/>
	<stop  offset="1" style="stop-color:#54C692"/>
</linearGradient>
<rect x="111" y="305.9" style="fill:url(#SVGID_00000165205213894931620180000009293586844835432320_);" width="77.2" height="17.8"/>
<linearGradient id="SVGID_00000104671196020979904210000006582525159888010411_" gradientUnits="userSpaceOnUse" x1="111.04" y1="93.605" x2="188.25" y2="93.605" gradientTransform="matrix(1 0 0 -1 0 438)">
	<stop  offset="0" style="stop-color:#CBED69"/>
	<stop  offset="1" style="stop-color:#54C692"/>
</linearGradient>
<rect x="111" y="335.5" style="fill:url(#SVGID_00000104671196020979904210000006582525159888010411_);" width="77.2" height="17.8"/>
<linearGradient id="SVGID_00000162315948684698726430000015312047184635149501_" gradientUnits="userSpaceOnUse" x1="199.81" y1="152.78" x2="277.02" y2="152.78" gradientTransform="matrix(1 0 0 -1 0 438)">
	<stop  offset="0" style="stop-color:#CBED69"/>
	<stop  offset="1" style="stop-color:#54C692"/>
</linearGradient>
<rect x="199.8" y="276.3" style="fill:url(#SVGID_00000162315948684698726430000015312047184635149501_);" width="77.2" height="17.8"/>
<linearGradient id="SVGID_00000011012675124147674640000002103402838056251036_" gradientUnits="userSpaceOnUse" x1="199.81" y1="123.19" x2="277.02" y2="123.19" gradientTransform="matrix(1 0 0 -1 0 438)">
	<stop  offset="0" style="stop-color:#CBED69"/>
	<stop  offset="1" style="stop-color:#54C692"/>
</linearGradient>
<rect x="199.8" y="305.9" style="fill:url(#SVGID_00000011012675124147674640000002103402838056251036_);" width="77.2" height="17.8"/>
<linearGradient id="SVGID_00000170993249090929756850000013912057718569352067_" gradientUnits="userSpaceOnUse" x1="199.81" y1="93.605" x2="277.02" y2="93.605" gradientTransform="matrix(1 0 0 -1 0 438)">
	<stop  offset="0" style="stop-color:#CBED69"/>
	<stop  offset="1" style="stop-color:#54C692"/>
</linearGradient>
<rect x="199.8" y="335.5" style="fill:url(#SVGID_00000170993249090929756850000013912057718569352067_);" width="77.2" height="17.8"/>
<linearGradient id="SVGID_00000003093732970707239880000009146729183477755319_" gradientUnits="userSpaceOnUse" x1="288.59" y1="152.78" x2="365.8" y2="152.78" gradientTransform="matrix(1 0 0 -1 0 438)">
	<stop  offset="0" style="stop-color:#CBED69"/>
	<stop  offset="1" style="stop-color:#54C692"/>
</linearGradient>
<rect x="288.6" y="276.3" style="fill:url(#SVGID_00000003093732970707239880000009146729183477755319_);" width="77.2" height="17.8"/>
<linearGradient id="SVGID_00000112624526813811078650000012638158926851212967_" gradientUnits="userSpaceOnUse" x1="288.59" y1="123.19" x2="365.8" y2="123.19" gradientTransform="matrix(1 0 0 -1 0 438)">
	<stop  offset="0" style="stop-color:#CBED69"/>
	<stop  offset="1" style="stop-color:#54C692"/>
</linearGradient>
<rect x="288.6" y="305.9" style="fill:url(#SVGID_00000112624526813811078650000012638158926851212967_);" width="77.2" height="17.8"/>
<linearGradient id="SVGID_00000144328037363841032320000012980323042292633231_" gradientUnits="userSpaceOnUse" x1="288.59" y1="93.605" x2="365.8" y2="93.605" gradientTransform="matrix(1 0 0 -1 0 438)">
	<stop  offset="0" style="stop-color:#CBED69"/>
	<stop  offset="1" style="stop-color:#54C692"/>
</linearGradient>
<rect x="288.6" y="335.5" style="fill:url(#SVGID_00000144328037363841032320000012980323042292633231_);" width="77.2" height="17.8"/>
</svg>