<?xml version="1.0" encoding="utf-8"?>
<!-- Generator: Adobe Illustrator 28.1.0, SVG Export Plug-In . SVG Version: 6.00 Build 0)  -->
<svg version="1.1" id="Ebene_1" xmlns="http://www.w3.org/2000/svg" xmlns:xlink="http://www.w3.org/1999/xlink" x="0px" y="0px"
	 viewBox="0 0 99.2 99.2" style="enable-background:new 0 0 99.2 99.2;" xml:space="preserve">
<style type="text/css">
	.st0{fill:url(#XMLID_00000088090871964710624050000000412618155787865256_);}
	.st1{fill:url(#XMLID_00000031185515226415201510000004766364987970536576_);}
	.st2{fill:url(#XMLID_00000021811856005187502270000007237624723174388358_);}
	.st3{fill:url(#XMLID_00000134931254158000702560000011242126223095013055_);}
	.st4{fill:url(#XMLID_00000008132966201933439340000002498285802320880290_);}
	.st5{fill:url(#XMLID_00000181772734698101139970000013379194820959335351_);}
	.st6{fill:url(#XMLID_00000038382532232705127240000015647352128127856000_);}
	.st7{fill:url(#XMLID_00000127012115523082742410000006759649406106654389_);}
	.st8{fill:url(#XMLID_00000165201812665875676450000017754381013746744194_);}
	.st9{fill:url(#XMLID_00000123409033352246442040000008175307414107527069_);}
	.st10{fill:url(#XMLID_00000102502424399906922960000003815981335948974256_);}
	.st11{fill:url(#XMLID_00000065046850820321494180000003318315339232261813_);}
</style>
<g id="XMLID_1_">
	
		<linearGradient id="XMLID_00000146500610374427154100000008731893006001917064_" gradientUnits="userSpaceOnUse" x1="10.9" y1="35.6" x2="29.7109" y2="35.6">
		<stop  offset="0" style="stop-color:#F95900"/>
		<stop  offset="1" style="stop-color:#FB9F27"/>
	</linearGradient>
	<path id="XMLID_17_" style="fill:url(#XMLID_00000146500610374427154100000008731893006001917064_);" d="M28.5,34.4H12.1
		c-0.7,0-1.2,0.6-1.2,1.2c0,0.7,0.6,1.2,1.2,1.2h16.4c0.7,0,1.2-0.6,1.2-1.2C29.8,34.9,29.2,34.4,28.5,34.4z"/>
	
		<linearGradient id="XMLID_00000177484069130757526480000017322751778968374698_" gradientUnits="userSpaceOnUse" x1="10.9" y1="29.7" x2="29.7109" y2="29.7">
		<stop  offset="0" style="stop-color:#F95900"/>
		<stop  offset="1" style="stop-color:#FB9F27"/>
	</linearGradient>
	<path id="XMLID_16_" style="fill:url(#XMLID_00000177484069130757526480000017322751778968374698_);" d="M28.5,28.5H12.1
		c-0.7,0-1.2,0.6-1.2,1.2c0,0.7,0.6,1.2,1.2,1.2h16.4c0.7,0,1.2-0.6,1.2-1.2C29.8,29.1,29.2,28.5,28.5,28.5z"/>
	
		<linearGradient id="XMLID_00000163770041400448341080000012591686116181640851_" gradientUnits="userSpaceOnUse" x1="10.9" y1="50.6" x2="51.4109" y2="50.6">
		<stop  offset="0" style="stop-color:#F95900"/>
		<stop  offset="1" style="stop-color:#FB9F27"/>
	</linearGradient>
	<path id="XMLID_15_" style="fill:url(#XMLID_00000163770041400448341080000012591686116181640851_);" d="M50.2,49.4H12.1
		c-0.7,0-1.2,0.6-1.2,1.2c0,0.7,0.6,1.2,1.2,1.2h38.1c0.7,0,1.2-0.6,1.2-1.2C51.5,49.9,50.9,49.4,50.2,49.4z"/>
	
		<linearGradient id="XMLID_00000179604464923503113200000014092738512612699532_" gradientUnits="userSpaceOnUse" x1="10.9" y1="44.7" x2="51.4109" y2="44.7">
		<stop  offset="0" style="stop-color:#F95900"/>
		<stop  offset="1" style="stop-color:#FB9F27"/>
	</linearGradient>
	<path id="XMLID_14_" style="fill:url(#XMLID_00000179604464923503113200000014092738512612699532_);" d="M50.2,43.5H12.1
		c-0.7,0-1.2,0.6-1.2,1.2c0,0.7,0.6,1.2,1.2,1.2h38.1c0.7,0,1.2-0.6,1.2-1.2C51.5,44.1,50.9,43.5,50.2,43.5z"/>
	
		<linearGradient id="XMLID_00000160885524282844074270000000627380989455286439_" gradientUnits="userSpaceOnUse" x1="33.8" y1="62.8" x2="51.4109" y2="62.8">
		<stop  offset="0" style="stop-color:#F95900"/>
		<stop  offset="1" style="stop-color:#FB9F27"/>
	</linearGradient>
	<path id="XMLID_13_" style="fill:url(#XMLID_00000160885524282844074270000000627380989455286439_);" d="M50.2,61.6H35
		c-0.7,0-1.2,0.6-1.2,1.2c0,0.7,0.6,1.2,1.2,1.2h15.2c0.7,0,1.2-0.6,1.2-1.2C51.5,62.2,50.9,61.6,50.2,61.6z"/>
	
		<linearGradient id="XMLID_00000165225898558908101770000004563837924346073245_" gradientUnits="userSpaceOnUse" x1="33.8" y1="68.6" x2="51.4109" y2="68.6">
		<stop  offset="0" style="stop-color:#F95900"/>
		<stop  offset="1" style="stop-color:#FB9F27"/>
	</linearGradient>
	<path id="XMLID_12_" style="fill:url(#XMLID_00000165225898558908101770000004563837924346073245_);" d="M50.2,67.4H35
		c-0.7,0-1.2,0.6-1.2,1.2c0,0.7,0.6,1.2,1.2,1.2h15.2c0.7,0,1.2-0.6,1.2-1.2C51.5,68,50.9,67.4,50.2,67.4z"/>
	
		<linearGradient id="XMLID_00000102508406663555920570000000353204012297642407_" gradientUnits="userSpaceOnUse" x1="33.8" y1="57" x2="51.4109" y2="57">
		<stop  offset="0" style="stop-color:#F95900"/>
		<stop  offset="1" style="stop-color:#FB9F27"/>
	</linearGradient>
	<path id="XMLID_11_" style="fill:url(#XMLID_00000102508406663555920570000000353204012297642407_);" d="M50.2,55.8H35
		c-0.7,0-1.2,0.6-1.2,1.2c0,0.7,0.6,1.2,1.2,1.2h15.2c0.7,0,1.2-0.6,1.2-1.2C51.5,56.3,50.9,55.8,50.2,55.8z"/>
	<g id="XMLID_28_">
		<g id="XMLID_29_">
			
				<linearGradient id="XMLID_00000013881864880905412430000004355268223872406424_" gradientUnits="userSpaceOnUse" x1="11.3" y1="62.15" x2="30.3076" y2="62.15">
				<stop  offset="0" style="stop-color:#F95900"/>
				<stop  offset="0.8579" style="stop-color:#FB9521"/>
				<stop  offset="1" style="stop-color:#FB9F27"/>
			</linearGradient>
			<path id="XMLID_31_" style="fill:url(#XMLID_00000013881864880905412430000004355268223872406424_);" d="M28.5,54.5H13.1
				c-1,0-1.8,0.8-1.8,1.8V68c0,1,0.8,1.8,1.8,1.8h15.4c1,0,1.8-0.8,1.8-1.8V56.3C30.4,55.3,29.5,54.5,28.5,54.5z M29.2,68
				c0,0.4-0.3,0.7-0.7,0.7H13.1c-0.4,0-0.7-0.3-0.7-0.7V56.3c0-0.4,0.3-0.7,0.7-0.7h15.4c0.4,0,0.7,0.3,0.7,0.7V68z"/>
			
				<linearGradient id="XMLID_00000091738300234302353650000007553109583904386736_" gradientUnits="userSpaceOnUse" x1="13.9215" y1="62.75" x2="27.5785" y2="62.75">
				<stop  offset="0" style="stop-color:#FB9F27"/>
				<stop  offset="1" style="stop-color:#F95900"/>
			</linearGradient>
			<path id="XMLID_8_" style="fill:url(#XMLID_00000091738300234302353650000007553109583904386736_);" d="M24.8,61.8
				c-0.2-0.4-0.6-0.4-0.9,0l-1.7,2.4c-0.2,0.2-0.5,0.3-0.7,0.1c-0.2-0.2-0.3-0.5-0.1-0.7l0.5-0.7l-2.8-4.3c-0.2-0.4-0.6-0.4-0.8,0
				L14,66.5c-0.2,0.4,0,0.7,0.4,0.7h12.7c0.4,0,0.6-0.3,0.4-0.7L24.8,61.8z"/>
		</g>
	</g>
	
		<linearGradient id="XMLID_00000004515144650898379810000003814879874066576790_" gradientUnits="userSpaceOnUse" x1="0" y1="45.65" x2="64.5" y2="45.65">
		<stop  offset="0" style="stop-color:#FB9F27"/>
		<stop  offset="1" style="stop-color:#F95900"/>
	</linearGradient>
	<path id="XMLID_24_" style="fill:url(#XMLID_00000004515144650898379810000003814879874066576790_);" d="M64.5,70.4V34.2
		c0-0.6-0.3-1.2-0.7-1.7L40,8.8c-0.4-0.4-1.1-0.7-1.7-0.7H10.4C4.7,8.1,0,12.8,0,18.5v11.6v4.4v17.1l0,0v5.1v4.4v11.6
		c0,5.8,4.7,10.5,10.4,10.5h33.4H54l0,0c0.7,0,1.4-0.1,2.1-0.2c3.1-0.6,5.6-2.6,7.1-5.3c0.1-0.3,0.3-0.5,0.4-0.8c0,0,0,0,0-0.1
		c0.5-1.2,0.8-2.6,0.8-4l0,0v-0.6l0,0c0-0.3-0.1-0.7-0.2-1C64.4,71,64.5,70.7,64.5,70.4L64.5,70.4z M40,15.5L56.6,32H45.7
		c-3.1,0-5.7-2.6-5.7-5.7V15.5z M59.7,72.9c0,1.4-0.5,2.7-1.4,3.7c-0.1,0.1-0.2,0.3-0.3,0.4l-0.1,0.1c-0.8,0.7-1.7,1.2-2.7,1.4
		c-0.4,0.1-0.7,0.1-1.1,0.1H29.8H10.5c-3.1,0-5.7-2.5-5.7-5.7V61.2v-4.4V44.1l0,0v-9.5v-4.4V18.5c0-3.1,2.6-5.7,5.7-5.7h24.8v13.5
		c0,5.8,4.7,10.5,10.5,10.5h14v33.4v0.1v0.1v0.1l0,0c0,0.3,0.1,0.6,0.2,0.9c-0.2,0.3-0.2,0.7-0.2,1v0.1L59.7,72.9L59.7,72.9z"/>
	
		<linearGradient id="XMLID_00000057868435829708039630000014017080079694785952_" gradientUnits="userSpaceOnUse" x1="45.3" y1="64.7182" x2="99.3" y2="64.7182">
		<stop  offset="0" style="stop-color:#FB9F27"/>
		<stop  offset="1" style="stop-color:#F95900"/>
	</linearGradient>
	<path id="XMLID_21_" style="fill:url(#XMLID_00000057868435829708039630000014017080079694785952_);" d="M65.6,79.5
		c0,0.1,0,0.2,0,0.3c-0.6,3.6-2.9,6.6-6.3,8c0.2-0.1,0.5-0.1,0.7-0.1c-0.3,0-0.6,0-0.8,0.2c-0.8,0.4-1.2,1.4-0.8,2.2
		c0.3,0.6,0.9,0.9,1.5,1l0,0H60c0,0,0,0,0.1,0c8.1,0.5,15.3-4.2,18.3-11.4c12-2.1,20.9-10.5,20.9-20.4c0-11.6-12.1-21-27-21
		s-27,9.4-27,21C45.3,69,53.9,77.2,65.6,79.5z M60.8,90.9C60.7,90.9,60.7,90.9,60.8,90.9C60.7,90.9,60.7,90.9,60.8,90.9
		C60.7,90.9,60.7,90.9,60.8,90.9z"/>
	
		<linearGradient id="XMLID_00000080182852815968424990000001891125807569428411_" gradientUnits="userSpaceOnUse" x1="64.9556" y1="59.2679" x2="81.6354" y2="59.2679">
		<stop  offset="0" style="stop-color:#FFFFFF"/>
		<stop  offset="1" style="stop-color:#FFFFFF"/>
	</linearGradient>
	<path id="XMLID_2_" style="fill:url(#XMLID_00000080182852815968424990000001891125807569428411_);" d="M80.2,48
		c-1.3-0.5-2.7,0.1-3.3,1.3l-5.7,13.5l-1.6-2.7c-0.7-1.2-2.2-1.6-3.4-0.9c-1.2,0.7-1.6,2.2-0.9,3.4l4.1,6.9c0.5,0.8,1.4,1.3,2.3,1.2
		c0.9-0.1,1.8-0.7,2.1-1.5l7.6-18.1C82,50,81.4,48.6,80.2,48z"/>
</g>
</svg>
